<svg width="40" height="37" viewBox="0 0 40 37" fill="none" xmlns="http://www.w3.org/2000/svg">
<path d="M30.1654 0.462891H9.66474C7.20509 0.462891 4.84618 1.43998 3.10695 3.17922C1.36772 4.91845 0.390625 7.27736 0.390625 9.737V27.309C0.390625 28.5269 0.630507 29.7329 1.09657 30.8581C1.56264 31.9832 2.24577 33.0056 3.10695 33.8668C4.84618 35.606 7.20509 36.5831 9.66474 36.5831H30.1654C32.6235 36.578 34.9794 35.5992 36.7175 33.8611C38.4556 32.123 39.4344 29.7671 39.4395 27.309V9.737C39.4344 7.27894 38.4556 4.92303 36.7175 3.18491C34.9794 1.4468 32.6235 0.468049 30.1654 0.462891ZM23.039 16.7072C22.0784 17.2551 20.9916 17.5432 19.8858 17.5432C18.78 17.5432 17.6932 17.2551 16.7326 16.7072L3.35834 9.03412C3.53128 7.48252 4.27015 6.04912 5.43363 5.00812C6.59711 3.96711 8.10353 3.39156 9.66474 3.39156H30.1654C31.7254 3.39583 33.2295 3.97286 34.3921 5.01307C35.5547 6.05327 36.2948 7.4842 36.4718 9.03412L23.039 16.7072Z" fill="#202020"/>
</svg>
