<svg width="104" height="106" viewBox="0 0 104 106" fill="none" xmlns="http://www.w3.org/2000/svg">
<path d="M48.9634 0.588817C69.6579 -0.696776 90.2686 12.0931 98.4124 31.2208C105.841 47.3418 104.187 67.2624 94.2029 81.9116C86.9806 92.8241 75.5458 100.838 62.8006 103.728C43.5153 108.425 22.0399 100.403 10.3927 84.3026C-1.41607 68.9836 -3.21117 46.9272 5.2617 29.6378C13.3247 13.0963 30.5187 1.27367 48.9634 0.588817ZM38.8839 27.4421C33.0618 33.2933 32.8284 43.8514 39.0006 49.5555C45.1877 55.2956 53.131 58.7349 59.5066 64.2527C62.5164 67.0161 63.5216 71.9993 61.2808 75.5287C57.9987 80.0943 50.6986 80.599 46.4473 77.1477C43.3358 74.6005 42.6775 69.7525 44.9095 66.4214C45.8728 64.8384 43.6738 64.0755 42.7673 63.2014C41.2205 62.3814 39.9281 60.1436 37.9983 60.7384C32.7327 66.5205 33.4388 76.4899 38.9916 81.8395C46.0733 88.6069 58.1453 88.8712 65.7087 82.7767C71.4859 78.5504 72.9698 70.0349 70.1755 63.661C68.1769 59.1524 63.6353 56.7494 60.0092 53.8328C63.0549 52.7605 65.6518 50.6489 67.5127 48.0206C72.4403 41.3373 70.9803 30.8273 64.1978 25.9763C56.8528 20.3083 45.5766 21.1493 38.8839 27.4421ZM25.6002 26.4028C22.3421 27.0156 21.1932 31.7675 23.8619 33.7799C26.04 35.7864 30.0281 34.5549 30.6025 31.6143C31.5539 28.6436 28.61 25.5558 25.6002 26.4028Z" fill="white"/>
</svg>
