<svg width="101" height="100" viewBox="0 0 101 100" fill="none" xmlns="http://www.w3.org/2000/svg">
<path d="M47.7871 0.0849437C67.8746 -1.14459 87.8807 11.0875 95.7856 29.3811C102.996 44.7991 101.39 63.8511 91.6996 77.8614C84.6892 88.298 73.5898 95.9625 61.2184 98.7261C42.4988 103.219 21.6534 95.546 10.3478 80.1481C-1.11452 65.4971 -2.85697 44.4026 5.36736 27.8672C13.1938 12.047 29.8835 0.739927 47.7871 0.0849437ZM38.0033 25.7672C32.352 31.3633 32.1255 41.461 38.1166 46.9163C44.1222 52.4061 51.8325 55.6954 58.0211 60.9726C60.9426 63.6155 61.9183 68.3814 59.7432 71.7568C56.5574 76.1234 49.4715 76.606 45.3448 73.3052C42.3246 70.8691 41.6857 66.2326 43.8521 63.0467C44.7872 61.5328 42.6527 60.8031 41.7728 59.9671C40.2714 59.1829 39.0168 57.0427 37.1437 57.6115C32.0325 63.1415 32.7179 72.6761 38.1079 77.7924C44.9818 84.2647 56.6997 84.5175 64.0412 78.6887C69.649 74.6468 71.0894 66.5026 68.377 60.4066C66.4371 56.0947 62.0287 53.7965 58.509 51.0071C61.4653 49.9815 63.986 47.962 65.7924 45.4483C70.5754 39.0565 69.1582 29.0048 62.5747 24.3653C55.4452 18.9445 44.4997 19.7488 38.0033 25.7672ZM25.1092 24.7732C21.9467 25.3593 20.8315 29.9039 23.422 31.8287C25.5361 33.7477 29.4073 32.5698 29.9648 29.7574C30.8883 26.9163 28.0307 23.9631 25.1092 24.7732Z" fill="#063B39"/>
</svg>
