<svg width="94" height="26" viewBox="0 0 94 26" fill="none" xmlns="http://www.w3.org/2000/svg">
<path d="M16.5781 9.40909C16.5478 9.00758 16.4645 8.6553 16.3281 8.35227C16.1918 8.04167 15.9986 7.7803 15.7486 7.56818C15.4986 7.34848 15.188 7.18561 14.8168 7.07954C14.4531 6.96591 14.0251 6.90909 13.5327 6.90909C12.4721 6.90909 11.5062 7.16288 10.6349 7.67045C9.76373 8.17803 9.03267 8.90909 8.44176 9.86364C7.85843 10.8182 7.45691 11.9697 7.23722 13.3182C7.00994 14.6818 6.991 15.8485 7.1804 16.8182C7.36979 17.7879 7.77888 18.5303 8.40767 19.0455C9.04403 19.5606 9.90388 19.8182 10.9872 19.8182C11.9569 19.8182 12.794 19.678 13.4986 19.3977C14.2031 19.1174 14.7675 18.7197 15.1918 18.2045C15.616 17.6894 15.8812 17.0833 15.9872 16.3864L17.0781 16.5H11.7599L12.4872 12H22.8054L22.2827 15.2273C21.9342 17.3485 21.1842 19.1629 20.0327 20.6705C18.8887 22.1705 17.4645 23.322 15.7599 24.125C14.0554 24.9205 12.1842 25.3182 10.1463 25.3182C7.88873 25.3182 5.98343 24.8371 4.4304 23.875C2.87737 22.9129 1.76752 21.5417 1.10085 19.7614C0.441761 17.9811 0.312974 15.8636 0.714489 13.4091C1.03267 11.4848 1.60843 9.7803 2.44176 8.29545C3.28267 6.81061 4.30919 5.55682 5.52131 4.53409C6.73343 3.50379 8.07055 2.72727 9.53267 2.20454C10.9948 1.67424 12.5099 1.40909 14.0781 1.40909C15.4493 1.40909 16.6955 1.60606 17.8168 2C18.938 2.38636 19.8963 2.93939 20.6918 3.65909C21.4872 4.37121 22.0819 5.21591 22.4759 6.19318C22.8774 7.17045 23.0402 8.24242 22.9645 9.40909H16.5781ZM23.177 25L26.0861 7.54545H32.3588L29.4497 25H23.177ZM29.4952 5.72727C28.6467 5.72727 27.9611 5.44697 27.4384 4.88636C26.9156 4.31818 26.7224 3.64394 26.8588 2.86364C26.9952 2.06818 27.4118 1.39394 28.1088 0.840908C28.8058 0.280303 29.5785 0 30.427 0C31.2831 0 31.9649 0.280303 32.4724 0.840908C32.98 1.39394 33.1694 2.06818 33.0406 2.86364C32.9194 3.64394 32.5103 4.31818 31.8134 4.88636C31.124 5.44697 30.3512 5.72727 29.4952 5.72727ZM51.5457 7.54545L42.773 25H35.5003L32.5457 7.54545H38.9094L39.8185 19.0909H40.0003L44.7276 7.54545H51.5457ZM56.6077 25.3182C54.744 25.3182 53.1986 24.9621 51.9713 24.25C50.744 23.5303 49.8804 22.5 49.3804 21.1591C48.8804 19.8106 48.7895 18.197 49.1077 16.3182C49.4107 14.5152 50.0357 12.9394 50.9827 11.5909C51.9372 10.2424 53.138 9.19318 54.5849 8.44318C56.0395 7.69318 57.6683 7.31818 59.4713 7.31818C60.7895 7.31818 61.9448 7.52273 62.9372 7.93182C63.9372 8.34091 64.7516 8.93561 65.3804 9.71591C66.0092 10.4962 66.4334 11.4394 66.6531 12.5455C66.8804 13.6439 66.8804 14.8864 66.6531 16.2727L66.4259 17.7273H50.8349L51.3804 14.2727H61.1986C61.2743 13.7727 61.2251 13.3333 61.0509 12.9545C60.8842 12.5682 60.6152 12.2689 60.244 12.0568C59.8804 11.8371 59.441 11.7273 58.9259 11.7273C58.4107 11.7273 57.9259 11.8371 57.4713 12.0568C57.0243 12.2765 56.6418 12.5833 56.3236 12.9773C56.013 13.3712 55.8046 13.8333 55.6986 14.3636L55.0168 18C54.9259 18.5606 54.9599 19.0606 55.119 19.5C55.2781 19.9394 55.5546 20.2841 55.9486 20.5341C56.3425 20.7841 56.8501 20.9091 57.4713 20.9091C57.8956 20.9091 58.2971 20.8523 58.6759 20.7386C59.0622 20.6174 59.4031 20.4432 59.6986 20.2159C60.0016 19.9811 60.244 19.697 60.4259 19.3636H66.1531C65.744 20.5758 65.0963 21.6288 64.2099 22.5227C63.3312 23.4091 62.2478 24.0985 60.9599 24.5909C59.6796 25.0758 58.2289 25.3182 56.6077 25.3182ZM66.1582 25L69.0673 7.54545H75.1582L74.6128 10.8636H74.7946C75.3173 9.63636 75.9726 8.73864 76.7605 8.17045C77.5484 7.60227 78.4082 7.31818 79.3401 7.31818C79.6128 7.31818 79.8741 7.34091 80.1241 7.38636C80.3817 7.42424 80.6355 7.47727 80.8855 7.54545L79.9764 12.9091C79.681 12.7955 79.3135 12.7159 78.8741 12.6705C78.4348 12.6174 78.0446 12.5909 77.7037 12.5909C77.0976 12.5909 76.5294 12.7311 75.9991 13.0114C75.4764 13.2841 75.0294 13.6705 74.6582 14.1705C74.2946 14.6629 74.0522 15.2424 73.931 15.9091L72.431 25H66.1582ZM78.4332 25L81.3423 7.54545H87.4332L86.8878 10.8636H87.0696C87.5923 9.63636 88.2476 8.73864 89.0355 8.17045C89.8234 7.60227 90.6832 7.31818 91.6151 7.31818C91.8878 7.31818 92.1491 7.34091 92.3991 7.38636C92.6567 7.42424 92.9105 7.47727 93.1605 7.54545L92.2514 12.9091C91.956 12.7955 91.5885 12.7159 91.1491 12.6705C90.7098 12.6174 90.3196 12.5909 89.9787 12.5909C89.3726 12.5909 88.8045 12.7311 88.2741 13.0114C87.7514 13.2841 87.3045 13.6705 86.9332 14.1705C86.5696 14.6629 86.3272 15.2424 86.206 15.9091L84.706 25H78.4332Z" fill="#1a305d"/>
</svg>
