<svg width="48" height="50" viewBox="0 0 48 50" fill="none" xmlns="http://www.w3.org/2000/svg">
<g clip-path="url(#clip0_23_1583)">
<path d="M44.0472 26.3389C44.0472 24.8865 43.9169 23.49 43.6748 22.1494H24.3848V30.0814H35.4077C34.9235 32.6323 33.4712 34.7922 31.2927 36.2446V41.4022H37.9399C41.8129 37.8272 44.0472 32.5765 44.0472 26.3389Z" fill="#4285F4"/>
<path d="M24.383 46.3555C29.9131 46.3555 34.5494 44.5308 37.9382 41.4027L31.2909 36.245C29.4662 37.4739 27.1387 38.2187 24.383 38.2187C19.0577 38.2187 14.5331 34.6251 12.9132 29.7839H6.09839V35.0719C9.46856 41.7564 16.3765 46.3555 24.383 46.3555Z" fill="#34A853"/>
<path d="M12.9138 29.7649C12.5042 28.536 12.2621 27.2326 12.2621 25.8734C12.2621 24.5141 12.5042 23.2107 12.9138 21.9819V16.6938H6.09899C4.70251 19.4496 3.90186 22.5591 3.90186 25.8734C3.90186 29.1877 4.70251 32.2972 6.09899 35.0529L11.4056 30.9193L12.9138 29.7649Z" fill="#FBBC05"/>
<path d="M24.383 13.5463C27.3994 13.5463 30.0807 14.589 32.2219 16.6L38.0871 10.7347C34.5308 7.42042 29.9131 5.39087 24.383 5.39087C16.3765 5.39087 9.46856 9.98995 6.09839 16.6931L12.9132 21.9811C14.5331 17.1399 19.0577 13.5463 24.383 13.5463Z" fill="#EA4335"/>
</g>
<defs>
<clipPath id="clip0_23_1583">
<rect width="44.6874" height="44.6874" fill="white" transform="translate(2.04077 3.52881)"/>
</clipPath>
</defs>
</svg>
